# Rhino

mtllib BunnyPolygonScaled_v2.mtl
usemtl diffuse_0
v 72.90475077615622 -85.340775306789752 -75.808146013606574
v -17.541111374063977 -95.547468272715975 -75.779840362337595
v 78.305109295511997 3.8373231396892669 -73.484352467748181
v -61.572323496657795 42.493973507021678 -75.881006941111863
v 17.985169854215833 125.55696431750837 -75.244871913951343
v 68.683283296734444 66.228447111590597 -76.055760068972205
v -66.738196599618846 -41.938338361989857 -75.007457067479891
v -28.860685276639821 91.161448225976855 -65.136268246796689
v -9.3144829710252282 144.04765165136746 -44.510359998338096
v -52.030844261838496 -20.059153067733959 -53.16666049130707
v -20.093017977128472 -73.8789746720864 -40.067891693890743
v 39.084930150704224 144.57407865690976 -29.469207344345961
v 43.40098738774546 120.17247241333817 -26.751247981246181
v 42.225100707291844 -62.923136578104405 -48.696006414260971
v 62.546846112156992 -21.313775137616609 -50.216254727173869
v 73.846283053854009 -25.403483499490349 30.515652302566703
v 96.154898823882476 -7.2576802147809945 14.483952656036822
v 97.36799748832992 43.335202736874813 -33.775687839012214
v -41.695394335829789 99.380818457348255 38.539725980124757
v -27.067132314269536 55.192185162543602 86.400531393758371
v 11.6056985190502 102.06456805035732 67.862111900318894
v -23.008328695510652 -70.327836967507636 90.098241735800215
v -51.033339725143399 -59.075327114653007 51.837333927967812
v -19.965880066437954 -124.1636143522783 56.383733157300348
v -45.364936210780584 -96.521121853434579 4.4047527943992257
v -59.458904272660277 -11.597244415453158 36.853586863560317
v -87.407578928481925 -12.81120108889829 -5.4051953714200529
v -81.008384856613858 22.309439372636998 22.524788849203659
v -63.332830851382361 75.789134404317437 -29.317627620004238
v -52.714534789962833 -38.208252395921839 5.1610367732805864
v -5.6322879626364566 -129.46264901570029 -5.2684322446096417
v 9.0438169066346674 -140.70096572460864 71.283384606817677
v 49.278305897433867 -123.22227462548577 2.6567906742635294
v 75.814734931161766 -86.106281136532189 15.895552584665573
v -17.374270949243215 -116.34978072623298 136.92542960494404
v 64.502899714580096 -113.33795228535556 53.611897415524112
v 72.377983081247052 -141.71484524737005 73.102298713708905
v 90.277451354834085 -99.154818579136972 75.762183735082687
v 88.402664593462418 -123.4963466834654 101.36368736430217
v 4.5294582545135906 -49.090873361934563 92.892745324743515
v 38.657126457172943 63.956313949443796 96.164692409464678
v 54.036536640542465 -80.857672929968274 141.27366859781219
v 45.912360607915041 -53.439473558758742 79.030187891545026
v 44.551634076083175 108.44560173085053 37.660746165379535
v -0.47344910690344966 129.13778804376028 -12.13370720201403
v 38.473667695783952 -136.41483036445956 140.63521663796743
v -13.469940912548747 -18.466018273572896 216.06105915959623
v 26.78758308562454 -70.667644602667608 146.24450320193776
v -1.0544166186874935 -70.326215208820329 137.53452128782192
v -8.713871614010408 -51.811789003949585 231.4375731086524
v 16.893327279399298 -109.44769167722109 145.83883511628142
v 1.5114818191694375 -94.639274422060325 152.55593889583557
v -25.141114631716498 -139.19403067110423 198.73797544834972
v -24.782751525374646 -119.59437615799409 236.39262824312001
v 4.2343100820683279 -116.84818372646926 229.84212639902393
v 86.60243215458992 66.575595773835005 31.045424918381496
v 57.400160613080565 22.243536547182124 82.129393395896969
vn 1.0468342281910736E-07 -2.9452436933752324E-07 -1
vn -5.8441735745873302E-05 -0.00017744471551850438 -1
vn 0.00039577521965838969 0.0011852536117658019 -0.99999922513961792
vn -1.9153698303853162E-05 -6.0195772675797343E-05 -1
vn 0.00076138455187901855 0.0023298445157706738 -0.99999701976776123
vn 0.0018949066288769245 0.0056804995983839035 -0.99998205900192261
vn -1.7552705955381498E-08 4.9458083850595358E-08 -1
vn -0.48408284783363342 0.47921720147132874 -0.73213022947311401
vn -0.6079443097114563 0.59320050477981567 -0.52774697542190552
vn -0.6163056492805481 0.33871898055076599 -0.71094077825546265
vn -0.47737792134284973 0.52502924203872681 -0.70459538698196411
vn -0.97992932796478271 0.05718308687210083 0.19096748530864716
vn -0.96974384784698486 0.051928706467151642 0.23853781819343567
vn -0.90196609497070313 0.21762298047542572 -0.37295764684677124
vn -0.16971147060394287 -0.62778627872467041 0.75965940952301025
vn -0.5568118691444397 -0.5589945912361145 0.6143985390663147
vn -0.18207739293575287 -0.55705040693283081 0.81027323007583618
vn -0.88360482454299927 -0.35328692197799683 0.30729600787162781
vn -0.89698827266693115 -0.31235921382904053 0.31279987096786499
vn -0.92360591888427734 -0.20451399683952332 0.32423162460327148
vn 0.70314580202102661 -0.50285869836807251 0.50271177291870117
vn 0.70314580202102661 -0.50285869836807251 0.50271177291870117
vn 0.70314580202102661 -0.50285869836807251 0.50271177291870117
vn 0.1384110301733017 0.42663383483886719 -0.89377063512802124
vn 0.55391979217529297 0.82424789667129517 -0.11742333322763443
vn 0.83296871185302734 0.22580944001674652 -0.50514674186706543
vn -0.061779271811246872 0.95423024892807007 -0.29262244701385498
vn 0.89154094457626343 -0.19082300364971161 0.41078132390975952
vn 0.72275853157043457 -0.11777417361736298 0.68099147081375122
vn 0.86125171184539795 -0.23861047625541687 0.44867640733718872
vn 0.96858006715774536 0.1618468314409256 0.18883402645587921
vn 0.96581810712814331 -0.013623732142150402 0.25886249542236328
vn 0.92335814237594604 0.026030195876955986 0.3830564022064209
vn 0.50713843107223511 -0.83285516500473022 -0.22172699868679047
vn 0.59944498538970947 -0.76468175649642944 -0.23649001121520996
vn 0.42579090595245361 -0.87009191513061523 -0.24827839434146881
vn 0.74122053384780884 -0.58283597230911255 -0.33300802111625671
vn 0.92124396562576294 -0.15434277057647705 -0.35705441236495972
vn 0.8967323899269104 -0.4392210841178894 -0.054367955774068832
vn 0.71005666255950928 -0.032547786831855774 -0.7033919095993042
vn 0.75874453783035278 0.44762995839118958 -0.47321677207946777
vn 0.94239252805709839 0.24425260722637177 -0.22855415940284729
vn -0.66159862279891968 0.61061060428619385 0.43524932861328125
vn -0.60543853044509888 0.1641845703125 0.77877312898635864
vn -0.25706183910369873 0.76122397184371948 0.59536314010620117
vn 0.45967486500740051 -0.84390467405319214 0.27662953734397888
vn 0.54829543828964233 -0.73445051908493042 0.39994317293167114
vn 0.25695255398750305 -0.93255096673965454 0.25362184643745422
vn 0.57043027877807617 -0.33737295866012573 0.74885833263397217
vn 0.53624331951141357 -0.33784866333007813 0.77349942922592163
vn 0.050426661968231201 -0.72148633003234863 0.69059008359909058
vn -0.84513473510742188 -0.26171794533729553 0.46610188484191895
vn -0.92309284210205078 -0.14443238079547882 0.35642513632774353
vn -0.69766694307327271 -0.70938843488693237 0.1001443937420845
vn -0.95863306522369385 -0.27829918265342712 -0.059768084436655045
vn -0.94563192129135132 -0.10968570411205292 0.30618515610694885
vn -0.79823881387710571 -0.25816580653190613 -0.54421067237854004
vn -0.78861832618713379 -0.38772955536842346 -0.47722837328910828
vn -0.84132617712020874 -0.52841728925704956 -0.11377781629562378
vn -0.92435306310653687 0.18263816833496094 0.33498466014862061
vn -0.68257790803909302 -0.06665300577878952 0.72776699066162109
vn -0.99516493082046509 -0.008435339666903019 -0.097854770720005035
vn -0.83728134632110596 0.52885228395462036 -0.13883523643016815
vn -0.48463955521583557 -0.72602277994155884 0.48786824941635132
vn -0.43444231152534485 -0.77632415294647217 0.45670631527900696
vn -0.48364123702049255 -0.7270963191986084 0.48725983500480652
vn -0.30083033442497253 -0.91462856531143188 -0.27010315656661987
vn -0.44897362589836121 -0.87253999710083008 -0.19260486960411072
vn -0.54688090085983276 0.052442766726016998 0.83556628227233887
vn -0.5104411244392395 0.27002483606338501 0.81641685962677002
vn -0.97767883539199829 -0.17118100821971893 -0.12182410806417465
vn -0.99128299951553345 -0.10954609513282776 -0.073196142911911011
vn -0.98432701826095581 -0.17495279014110565 -0.022177815437316895
vn -0.78579771518707275 -0.045799877494573593 0.61678546667098999
vn -0.80557346343994141 0.083781108260154724 0.58654248714447021
vn -0.27790012955665588 -0.80244886875152588 -0.52805995941162109
vn -0.77504891157150269 -0.63179641962051392 0.01150891650468111
vn -0.3515019416809082 -0.9311981201171875 0.09652179479598999
vn 0.56726396083831787 -0.79093664884567261 -0.22941403090953827
vn 0.74274194240570068 -0.41308599710464478 -0.52696710824966431
vn 0.78216195106506348 -0.3621307909488678 -0.50703448057174683
vn -0.050266224890947342 -0.38514932990074158 -0.92148429155349731
vn 0.38731241226196289 -0.32089558243751526 -0.86430037021636963
vn 0.29479703307151794 -0.7362138032913208 -0.60916662216186523
vn -0.70063221454620361 -0.71205300092697144 -0.045771703124046326
vn -0.70880860090255737 -0.68530350923538208 0.16718094050884247
vn 0.17700377106666565 -0.96989965438842773 0.16722530126571655
vn -0.90800440311431885 -0.15531210601329803 -0.38910943269729614
vn -0.89938807487487793 0.037508435547351837 -0.43553900718688965
vn -0.94698238372802734 -0.089347198605537415 -0.30861213803291321
vn 0.97150951623916626 -0.21650682389736176 -0.096405789256095886
vn 0.8523714542388916 -0.52115887403488159 0.043085239827632904
vn 0.585590660572052 -0.19238735735416412 -0.78744566440582275
vn 0.59485465288162231 -0.14784501492977142 -0.79012012481689453
vn 0.60036748647689819 -0.1178462952375412 -0.79099375009536743
vn 0.29440769553184509 -0.81493955850601196 -0.49919700622558594
vn 0.12940679490566254 -0.39948409795761108 -0.90756064653396606
vn 0.098855525255203247 -0.76292258501052856 -0.63888704776763916
vn 0.82615458965301514 -0.49274379014968872 -0.27326205372810364
vn 0.91331595182418823 -0.3871016800403595 -0.12651574611663818
vn 0.89914768934249878 -0.40347051620483398 -0.16954337060451508
vn -0.27277052402496338 -0.10559933632612228 0.95626616477966309
vn -0.2899722158908844 0.17230141162872314 0.94139701128005981
vn -0.022783653810620308 0.078941121697425842 0.99661886692047119
vn 0.23904107511043549 0.11134996265172958 0.96460384130477905
vn 0.18139858543872833 0.89096468687057495 0.41626492142677307
vn 0.58970117568969727 0.76947033405303955 0.2452915757894516
vn 0.47922363877296448 0.82210755348205566 0.3073822557926178
vn 0.015370531938970089 0.8029942512512207 0.59578853845596313
vn 0.57113409042358398 0.63330948352813721 0.52223080396652222
vn 0.33755862712860107 0.86494135856628418 0.37139013409614563
vn 0.15703806281089783 0.98317253589630127 0.09333183616399765
vn -0.20469550788402557 0.97824805974960327 -0.033622778952121735
vn -0.22484740614891052 -0.96499460935592651 -0.13501499593257904
vn 0.067619733512401581 -0.96904373168945313 0.23744863271713257
vn -0.56997299194335938 -0.78647792339324951 0.23787234723567963
vn -0.50760924816131592 0.6228184700012207 -0.59534025192260742
vn 0.038538001477718353 0.87472325563430786 -0.48308798670768738
vn -0.24127738177776337 0.8328167200088501 -0.49819833040237427
vn 0.7261008620262146 -0.53766423463821411 0.42859616875648499
vn 0.73370856046676636 -0.53681814670562744 0.41653093695640564
vn 0.74106639623641968 -0.49798879027366638 0.45036405324935913
vn 0.095231272280216217 -0.82424914836883545 0.55816155672073364
vn -0.15984424948692322 -0.90285611152648926 0.3991248607635498
vn -0.17279300093650818 -0.89471113681793213 0.41186711192131042
vn -0.90476173162460327 -0.41594541072845459 0.091627664864063263
vn -0.65328866243362427 -0.66278767585754395 0.36595958471298218
vn -0.88428878784179688 -0.46118846535682678 0.073065266013145447
vn -0.98766416311264038 -0.15542197227478027 -0.01906588114798069
vn -0.91440969705581665 -0.40107586979866028 0.054708540439605713
vn -0.92446780204772949 -0.37698420882225037 -0.056940097361803055
vn 0.8730541467666626 -0.056225314736366272 0.48437091708183289
vn 0.93465131521224976 0.090227782726287842 0.34392717480659485
vn 0.92846214771270752 0.11990322172641754 0.35154122114181519
vn -0.98537123203277588 0.16175472736358643 -0.053655683994293213
vn -0.98537123203277588 0.16175472736358643 -0.053655683994293213
vn -0.98537123203277588 0.16175472736358643 -0.053655683994293213
vn -0.75747913122177124 0.63924157619476318 -0.13264833390712738
vn -0.82479476928710938 0.55943244695663452 -0.082151614129543304
vn -0.83315593004226685 0.55293405055999756 -0.010730582289397717
vn -0.094827994704246521 0.97929054498672485 0.17887900769710541
vn -0.35618132352828979 0.89846986532211304 0.25668418407440186
vn -0.3051295280456543 0.93044179677963257 0.20291371643543243
vn -0.11082853376865387 -0.84079468250274658 0.52988803386688232
vn -0.21500913798809052 -0.84134066104888916 0.49590018391609192
vn 0.046074315905570984 -0.82136440277099609 0.56853997707366943
vn 0.22492644190788269 -0.96867913007736206 0.10520843416452408
vn 0.56913876533508301 -0.79984378814697266 0.19060677289962769
vn 0.30413797497749329 -0.94948220252990723 -0.077353976666927338
vn 0.3541412353515625 0.8907088041305542 0.2849944531917572
vn 0.5291944146156311 0.82100218534469604 0.21426314115524292
vn 0.25504142045974731 0.94292747974395752 0.21410663425922394
vn 0.21097508072853088 -0.92469936609268188 -0.31689208745956421
vn 0.3399040699005127 -0.93766075372695923 -0.072508729994297028
vn 0.32273828983306885 -0.93499189615249634 -0.14707192778587341
vn 0.20295754075050354 0.2756018340587616 0.93960195779800415
vn 0.097218483686447144 -0.17673631012439728 0.97944515943527222
vn 0.093967393040657043 -0.25210347771644592 0.96312719583511353
vn 0.21164055168628693 0.221681147813797 0.95187485218048096
vn -0.36591768264770508 -0.67527782917022705 0.64039367437362671
vn -0.31265878677368164 -0.69079697132110596 0.65195399522781372
vn -0.4053778350353241 -0.66211479902267456 0.63029581308364868
vn -0.76084804534912109 -0.011615506373345852 0.64882612228393555
vn -0.67124015092849731 0.016603307798504829 0.74105393886566162
vn -0.73802053928375244 0.42504215240478516 0.52408474683761597
vn -0.87530946731567383 0.36401703953742981 0.31831571459770203
vn -0.99711722135543823 -0.049321852624416351 -0.057659603655338287
vn -0.9531676173210144 -0.13851074874401093 0.26886105537414551
vn -0.99767440557479858 0.0015366640873253345 -0.06814226508140564
vn -0.27875328063964844 0.90510869026184082 0.32105273008346558
vn 0.25026398897171021 0.88287466764450073 0.39736664295196533
vn -0.21946026384830475 0.96827739477157593 0.11948274821043015
vn 0.41373088955879211 0.83854830265045166 0.35449051856994629
vn -0.23086941242218018 0.92281627655029297 0.30839821696281433
vn -0.23086941242218018 0.92281627655029297 0.30839821696281433
vn -0.23086941242218018 0.92281627655029297 0.30839821696281433
vn -0.93306875228881836 0.023541202768683434 0.35892689228057861
vn -0.97088176012039185 0.23916810750961304 0.013682701624929905
vn -0.97686457633972168 0.17938537895679474 0.11643240600824356
vn 0.78135865926742554 0.13973751664161682 0.60823684930801392
vn 0.51530158519744873 0.22547516226768494 0.82681632041931152
vn 0.82064521312713623 0.12156429886817932 0.55835789442062378
vn 0.83983969688415527 0.46144184470176697 0.28590333461761475
vn 0.65265429019927979 0.75071406364440918 -0.10232673585414886
vn 0.67353904247283936 0.72599601745605469 0.13883425295352936
vn -0.14738605916500092 0.56491166353225708 0.81188184022903442
vn 0.89513647556304932 -0.1812550276517868 0.40728038549423218
vn 0.84731477499008179 -0.041564095765352249 0.52946209907531738
vn 0.89743149280548096 -0.16926676034927368 0.40738862752914429
vn 0.95554655790328979 -0.12091600894927979 0.26890534162521362
vn 0.98216372728347778 0.14124277234077454 -0.12411656975746155
vn 0.99382448196411133 0.050719443708658218 -0.098693668842315674
vn 0.66512960195541382 -0.60933464765548706 -0.43164092302322388
vn 0.57829427719116211 0.69639229774475098 -0.42498642206192017
vn 0.49020889401435852 0.64565849304199219 -0.58550858497619629
vn 0.61733323335647583 0.7192310094833374 -0.31875762343406677
vn 0.67571145296096802 0.70882421731948853 0.20244064927101135
vn 0.85426229238510132 0.14491546154022217 0.49923482537269592
vn 0.88910114765167236 0.32397535443305969 0.32332509756088257
vn 0.718403160572052 0.086007177829742432 0.69028955698013306
vn 0.45342454314231873 -0.094963096082210541 0.88622128963470459
vn 0.8930848240852356 0.34568661451339722 0.2879241406917572
vn 0.80112200975418091 0.089238263666629791 0.59181082248687744
vn 0.96375930309295654 0.042369049042463303 0.26338735222816467
vn 0.55365830659866333 -0.11904154717922211 0.82419145107269287
vn 0.58741611242294312 -0.27632644772529602 0.76064842939376831
vn 0.76849466562271118 0.21507915854454041 0.60262501239776611
vn 0.54382580518722534 -0.1942441314458847 0.81640839576721191
vn 0.69513612985610962 -0.0022222858387976885 0.71887469291687012
vn 0.7849268913269043 -0.16978628933429718 0.59587115049362183
vn 0.99067455530166626 0.0024819117970764637 0.136227086186409
vn -0.4022325873374939 0.91146773099899292 0.086229465901851654
vn 0.40359565615653992 -0.79931938648223877 0.4451955258846283
vn 0.46252155303955078 -0.85212624073028564 0.24485643208026886
vn -0.022592969238758087 -0.99778509140014648 0.062565505504608154
vn -0.022592969238758087 -0.99778509140014648 0.062565505504608154
vn -0.022592969238758087 -0.99778509140014648 0.062565505504608154
vn -0.94692045450210571 -0.20802560448646545 -0.24508564174175262
vn -0.91643267869949341 -0.2963072657585144 -0.26898539066314697
vn -0.53878647089004517 -0.52836287021636963 -0.65615689754486084
vn -0.67070555686950684 -0.42616522312164307 -0.60707271099090576
vn -0.80821073055267334 0.46157962083816528 -0.36570435762405396
f 1//1 2//2 3//3
f 5//5 6//6 4//4
f 4//4 2//2 7//7
f 2//2 6//6 3//3
f 5//8 8//9 9//10
f 5//8 4//11 8//9
f 7//12 10//13 4//14
f 7//15 2//16 10//17
f 2//18 11//19 10//20
f 6//21 12//22 13//23
f 5//24 12//25 6//26
f 12//25 5//24 9//27
f 14//28 1//29 15//30
f 1//31 3//32 15//33
f 16//34 15//35 17//36
f 3//37 18//38 17//39
f 15//35 3//37 17//39
f 3//40 6//41 18//42
f 19//43 20//44 21//45
f 11//46 2//47 14//48
f 1//49 14//50 2//51
f 22//52 23//53 24//54
f 23//53 25//55 24//54
f 20//44 26//56 23//53
f 26//56 20//44 19//43
f 4//57 10//58 27//59
f 28//60 27//59 26//61
f 4//14 27//62 29//63
f 29//63 27//62 28//60
f 19//43 29//63 28//60
f 27//64 30//65 26//66
f 27//59 10//67 30//68
f 28//69 26//61 19//70
f 26//71 30//72 23//73
f 23//74 22//75 20//44
f 31//76 24//54 25//77
f 31//76 32//78 24//54
f 33//79 14//80 34//81
f 31//76 11//82 14//83
f 31//76 14//83 33//84
f 24//54 32//85 35//86
f 31//76 33//79 32//87
f 30//88 11//89 25//90
f 30//72 25//55 23//73
f 33//79 34//91 36//92
f 37//93 36//94 38//95
f 32//96 36//97 37//98
f 37//99 38//100 39//101
f 20//102 22//103 40//104
f 20//44 40//104 41//105
f 40//106 42//107 43//108
f 21//109 41//110 44//111
f 13//112 45//113 44//111
f 45//113 21//109 44//111
f 32//114 46//115 35//116
f 47//117 48//118 49//119
f 48//120 50//121 51//122
f 50//123 52//124 51//125
f 47//126 52//127 50//128
f 47//129 49//130 52//131
f 48//132 47//133 50//134
f 35//135 53//136 54//137
f 52//138 35//139 54//140
f 52//141 54//142 55//143
f 54//144 53//145 55//146
f 55//147 53//148 51//149
f 52//150 55//151 51//152
f 53//153 35//154 51//155
f 46//158 42//159 51//157
f 51//160 35//161 46//162
f 35//163 52//164 49//165
f 22//166 35//163 49//165
f 24//167 35//168 22//169
f 49//170 48//171 40//172
f 40//172 48//171 42//173
f 12//174 9//175 45//176
f 45//177 9//178 8//179
f 12//180 45//181 13//182
f 41//110 56//183 44//111
f 18//42 6//41 13//184
f 18//42 13//184 56//183
f 56//183 13//184 44//185
f 20//186 41//105 21//109
f 16//187 57//188 43//189
f 16//187 17//190 57//188
f 34//91 15//191 16//192
f 14//80 15//193 34//81
f 38//194 36//195 43//196
f 42//107 38//197 43//108
f 39//198 38//199 42//200
f 39//198 42//200 46//201
f 34//91 16//202 43//203
f 36//204 34//91 43//203
f 57//205 41//105 43//206
f 43//206 41//105 40//104
f 57//188 17//190 41//207
f 17//208 56//209 41//210
f 17//211 18//42 56//183
f 40//172 22//212 49//170
f 45//113 29//63 19//43
f 21//109 45//113 19//43
f 45//113 8//9 29//63
f 37//213 39//214 46//115
f 46//215 32//216 37//217
f 33//79 36//92 32//87
f 10//218 11//219 30//88
f 11//220 31//76 25//221
f 29//63 8//222 4//14
f 6//6 2//2 4//4
f 42//159 48//156 51//157
